HIERARCHY
ROOT Hips
{
	OFFSET 0.000000 0.000000 0.000000 
	CHANNELS 6 Xposition Yposition Zposition Zrotation Yrotation Xrotation
	JOINT LeftUpLeg
	{
		OFFSET 1.363060 -1.794630 0.839290 
		CHANNELS 3 Zrotation Yrotation Xrotation
		JOINT LeftLeg
		{
			OFFSET 2.448110 -6.726130 0.000000 
			CHANNELS 3 Zrotation Yrotation Xrotation
			JOINT LeftFoot
			{
				OFFSET 2.562200 -7.039590 0.000000 
				CHANNELS 3 Zrotation Yrotation Xrotation
				JOINT LeftToeBase
				{
					OFFSET 0.157640 -0.433110 2.322550 
					CHANNELS 3 Zrotation Yrotation Xrotation
					End Site
					{
						OFFSET 0.000000 0.000000 0.000000 
					}
				}
			}
		}
	}
	JOINT RightUpLeg
	{
		OFFSET -1.305520 -1.794630 0.839290 
		CHANNELS 3 Zrotation Yrotation Xrotation
		JOINT RightLeg
		{
			OFFSET -2.542530 -6.985550 0.000000 
			CHANNELS 3 Zrotation Yrotation Xrotation
			JOINT RightFoot
			{
				OFFSET -2.568260 -7.056230 0.000000 
				CHANNELS 3 Zrotation Yrotation Xrotation
				JOINT RightToeBase
				{
					OFFSET -0.164730 -0.452590 2.363150 
					CHANNELS 3 Zrotation Yrotation Xrotation
					End Site
					{
						OFFSET 0.000000 0.000000 0.000000 
					}
				}
			}
		}
	}
	JOINT Spine
	{
		OFFSET 0.028270 2.035590 -0.193380 
		CHANNELS 3 Zrotation Yrotation Xrotation
		JOINT Spine1
		{
			OFFSET 0.056720 2.048850 -0.042750 
			CHANNELS 3 Zrotation Yrotation Xrotation
			JOINT Neck1
			{
				OFFSET -0.054170 1.746240 0.172020 
				CHANNELS 3 Zrotation Yrotation Xrotation
				JOINT Head
				{
					OFFSET 0.104070 1.761360 -0.123970 
					CHANNELS 3 Zrotation Yrotation Xrotation
					End Site
					{
						OFFSET 0.000000 0.000000 0.000000 
					}
				}
			}
			JOINT LeftArm
			{
				OFFSET 3.362410 1.200890 -0.311210 
				CHANNELS 3 Zrotation Yrotation Xrotation
				JOINT LeftForeArm
				{
					OFFSET 4.983000 -0.000000 -0.000000 
					CHANNELS 3 Zrotation Yrotation Xrotation
					JOINT LeftHand
					{
						OFFSET 3.483560 -0.000000 -0.000000 
						CHANNELS 3 Zrotation Yrotation Xrotation
						JOINT LeftHandIndex1
						{
							OFFSET 0.715260 -0.000000 -0.000000 
							CHANNELS 3 Zrotation Yrotation Xrotation
							End Site
							{
								OFFSET 0.000000 0.000000 0.000000 
							}
						}
					}
				}
			}
			JOINT RightArm
			{
				OFFSET -3.136600 1.374050 -0.404650 
				CHANNELS 3 Zrotation Yrotation Xrotation
				JOINT RightForeArm
				{
					OFFSET -5.241900 -0.000000 -0.000000 
					CHANNELS 3 Zrotation Yrotation Xrotation
					JOINT RightHand
					{
						OFFSET -3.444170 -0.000000 -0.000000 
						CHANNELS 3 Zrotation Yrotation Xrotation
						JOINT RightHandIndex1
						{
							OFFSET -0.622530 -0.000000 -0.000000 
							CHANNELS 3 Zrotation Yrotation Xrotation
							End Site
							{
								OFFSET 0.000000 0.000000 0.000000 
							}
						}
					}
				}
			}
		}
	}
}
MOTION
Frames: 13
Frame Time: 0.041667
0.704759 17.514831 -15.254422 -2.486903 -1.695499 10.792388 -14.850257 -0.608442 -28.192101 1.475756 10.376958 28.597008 -0.734326 5.421940 -3.766729 0.077700 1.798000 4.947800 19.371964 6.791312 -26.842314 -2.185049 -11.030996 30.812869 0.059133 -2.623742 -7.001255 -0.277300 -3.386800 9.357500 1.484906 -0.018209 -0.460333 1.171649 -0.417548 7.888062 2.967353 -0.036928 32.020823 0.617200 0.510600 12.039400 -94.972472 -14.250367 45.704614 12.512363 -24.792726 -3.013933 0.113049 -0.682012 -11.327049 -7.125000 0.000000 0.000000 93.260709 14.084831 29.934907 -15.071714 28.754063 -4.424187 0.530927 0.856319 24.781769 7.125000 0.000000 0.000000 
0.706985 17.494692 -15.276686 -2.501941 -1.716792 10.836970 -14.846389 -0.655188 -28.557140 1.566993 10.535192 29.072341 -0.720978 5.371293 -3.933877 0.076800 1.787500 4.918800 19.361966 6.877416 -27.217129 -2.271933 -11.181466 31.262123 0.042318 -2.551305 -7.117677 -0.271800 -3.353500 9.264600 1.489889 -0.001241 -0.442184 1.186171 -0.410358 7.832045 2.945383 -0.028338 31.775437 0.596800 0.512200 11.947900 -94.887567 -14.227107 45.552488 12.640064 -24.980979 -3.070792 0.115838 -0.681505 -11.457798 -7.125000 0.000000 0.000000 93.143334 14.092071 29.951928 -15.242324 28.971556 -4.509515 0.532593 0.854846 24.629563 7.125000 0.000000 0.000000 
0.709211 17.473946 -15.299760 -2.514028 -1.740391 10.886704 -14.847745 -0.692099 -28.938244 1.660929 10.695274 29.555205 -0.704897 5.308903 -4.102812 0.075600 1.773800 4.881000 19.348183 6.959664 -27.610417 -2.362318 -11.335637 31.723701 0.024366 -2.472529 -7.233492 -0.265400 -3.314300 9.155100 1.494220 0.016713 -0.422277 1.200060 -0.402868 7.779522 2.925595 -0.020033 31.520547 0.577100 0.513800 11.852800 -94.801159 -14.201959 45.403857 12.775056 -25.179496 -3.131472 0.119694 -0.680818 -11.600668 -7.125000 0.000000 0.000000 93.027544 14.097917 29.979448 -15.418924 29.195831 -4.598523 0.534038 0.853087 24.471679 7.125000 0.000000 0.000000 
0.711438 17.452593 -15.323643 -2.519749 -1.767983 10.944147 -14.857662 -0.720264 -29.336020 1.757178 10.856346 30.043577 -0.686540 5.236543 -4.274814 0.074200 1.757800 4.836800 19.325990 7.042735 -28.023361 -2.455755 -11.492763 32.195356 0.006086 -2.390884 -7.347151 -0.258000 -3.268200 9.026400 1.497360 0.036824 -0.401671 1.214488 -0.394324 7.727291 2.913681 -0.010392 31.251342 0.561300 0.516200 11.749200 -94.714870 -14.173335 45.259691 12.912053 -25.380091 -3.193416 0.123857 -0.680095 -11.753502 -7.125000 0.000000 0.000000 92.913429 14.099210 30.016667 -15.601630 29.426408 -4.691214 0.534747 0.851523 24.308212 7.125000 0.000000 0.000000 
0.713259 17.430734 -15.348740 -2.524419 -1.797499 11.014463 -14.868989 -0.741612 -29.756165 1.855542 11.018294 30.536369 -0.665698 5.153145 -4.446577 0.072900 1.742000 4.793200 19.301000 7.134305 -28.459206 -2.552050 -11.652625 32.675571 -0.011192 -2.315495 -7.459336 -0.249300 -3.213000 8.872400 1.500138 0.057956 -0.379290 1.229730 -0.385730 7.682138 2.905374 0.001685 30.972458 0.547300 0.519800 11.640700 -94.630901 -14.154292 45.116921 13.044901 -25.573948 -3.253692 0.128266 -0.679337 -11.918670 -7.125000 0.000000 0.000000 92.804884 14.104353 30.060284 -15.788644 29.661127 -4.786720 0.534971 0.850269 24.139230 7.125000 0.000000 0.000000 
0.714879 17.408368 -15.374850 -2.523706 -1.831231 11.094662 -14.886665 -0.756911 -30.193644 1.955725 11.180467 31.031969 -0.643327 5.063035 -4.617392 0.071500 1.725100 4.746500 19.267780 7.235073 -28.912208 -2.650676 -11.814358 33.162182 -0.028112 -2.242453 -7.571180 -0.240900 -3.158300 8.719900 1.501696 0.081704 -0.355316 1.245037 -0.376113 7.642321 2.899078 0.015009 30.687434 0.533600 0.524400 11.530000 -94.549966 -14.145444 44.972500 13.169163 -25.754286 -3.310341 0.132074 -0.678708 -12.087313 -7.125000 0.000000 0.000000 92.705287 14.110484 30.103831 -15.978734 29.898084 -4.884303 0.535036 0.849111 23.968870 7.125000 0.000000 0.000000 
0.716295 17.385699 -15.401769 -2.520771 -1.870499 11.188779 -14.906893 -0.768188 -30.650955 2.057497 11.342562 31.528711 -0.619881 4.968603 -4.785852 0.070300 1.710400 4.705800 19.228250 7.350812 -29.382889 -2.751175 -11.977174 33.652056 -0.044039 -2.175616 -7.683377 -0.232500 -3.103600 8.567400 1.502931 0.106421 -0.330063 1.262477 -0.366706 7.609412 2.891512 0.032980 30.399862 0.519800 0.531000 11.418800 -94.473047 -14.147036 44.830876 13.278490 -25.911885 -3.359987 0.134835 -0.678295 -12.263354 -7.125000 0.000000 0.000000 92.612894 14.116046 30.155707 -16.174133 30.140065 -4.985258 0.534994 0.848000 23.782240 7.125000 0.000000 0.000000 
0.717712 17.362828 -15.429599 -2.515732 -1.913231 11.289118 -14.929224 -0.779232 -31.117752 2.160374 11.503504 32.024238 -0.596282 4.873440 -4.948618 0.069200 1.697800 4.671100 19.182874 7.479376 -29.859751 -2.853033 -12.139881 34.143022 -0.058975 -2.115719 -7.799461 -0.224900 -3.052700 8.425600 1.503478 0.132810 -0.303433 1.278796 -0.356616 7.578764 2.877935 0.052584 30.113790 0.502600 0.538400 11.310900 -94.399016 -14.154827 44.689230 13.377617 -26.053869 -3.405004 0.137020 -0.677990 -12.434468 -7.125000 0.000000 0.000000 92.530237 14.123525 30.203966 -16.369578 30.380060 -5.086691 0.535296 0.846540 23.606930 7.125000 0.000000 0.000000 
0.719028 17.339653 -15.458239 -2.512198 -1.958955 11.392668 -14.949360 -0.792114 -31.588941 2.264330 11.663318 32.518000 -0.573324 4.781806 -5.106576 0.068500 1.688600 4.645800 19.134927 7.619538 -30.337347 -2.955717 -12.301532 34.632175 -0.073400 -2.060222 -7.918376 -0.219000 -3.012900 8.314600 1.503976 0.160488 -0.275376 1.293719 -0.346073 7.548515 2.855106 0.073116 29.829066 0.480500 0.545800 11.207000 -94.327545 -14.169873 44.552520 13.465277 -26.178593 -3.444789 0.139183 -0.677614 -12.605650 -7.125000 0.000000 0.000000 92.454152 14.131525 30.249956 -16.566204 30.619579 -5.189387 0.535761 0.844726 23.440756 7.125000 0.000000 0.000000 
0.720546 17.316377 -15.487486 -2.506390 -2.004165 11.497134 -14.970006 -0.813944 -32.059627 2.369084 11.821545 33.009347 -0.551851 4.697082 -5.260409 0.068100 1.684100 4.633400 19.081001 7.767860 -30.812945 -3.058911 -12.461432 35.118077 -0.086780 -2.011855 -8.041088 -0.214200 -2.979600 8.221800 1.504395 0.187371 -0.247144 1.308060 -0.335736 7.511914 2.829512 0.091461 29.539348 0.457500 0.551500 11.101400 -94.265815 -14.179849 44.401680 13.544827 -26.290473 -3.480777 0.141009 -0.677259 -12.753538 -7.125000 0.000000 0.000000 92.381073 14.137591 30.294217 -16.762130 30.856101 -5.292378 0.536004 0.842940 23.280587 7.125000 0.000000 0.000000 
0.722469 17.292798 -15.517543 -2.502018 -2.045861 11.602669 -14.987161 -0.847882 -32.530054 2.475016 11.978789 33.499293 -0.532022 4.620773 -5.410280 0.067700 1.679300 4.620200 19.025247 7.919071 -31.288267 -3.162422 -12.619352 35.599650 -0.099608 -1.967737 -8.165276 -0.210300 -2.952300 8.145900 1.504872 0.211351 -0.218636 1.318467 -0.326292 7.469015 2.800970 0.109164 29.243664 0.433600 0.556200 10.994400 -94.210950 -14.186729 44.236892 13.616537 -26.389712 -3.513081 0.142485 -0.676945 -12.886642 -7.125000 0.000000 0.000000 92.311592 14.137047 30.341946 -16.962676 31.096311 -5.398502 0.536063 0.840774 23.124287 7.125000 0.000000 0.000000 
0.724594 17.269015 -15.548105 -2.500951 -2.083032 11.709126 -14.997838 -0.897386 -32.998480 2.582268 12.135355 33.989296 -0.514859 4.557736 -5.558832 0.067100 1.671700 4.599200 18.969937 8.071959 -31.763345 -3.266275 -12.775376 36.077831 -0.111777 -1.928141 -8.290497 -0.207000 -2.929100 8.081500 1.505956 0.231565 -0.190130 1.325626 -0.318147 7.419324 2.770995 0.129305 28.942051 0.409900 0.561300 10.885700 -94.164428 -14.186467 44.057077 13.680735 -26.477106 -3.541832 0.143770 -0.676626 -13.005294 -7.125000 0.000000 0.000000 92.244486 14.128696 30.392553 -17.167055 31.339401 -5.507376 0.535619 0.838493 22.975436 7.125000 0.000000 0.000000 
0.727124 17.244930 -15.579173 -2.506495 -2.116354 11.821499 -14.999102 -0.961701 -33.472264 2.691480 12.292202 34.481868 -0.499991 4.506332 -5.708218 0.066400 1.662100 4.572800 18.917669 8.228981 -32.245679 -3.370639 -12.930278 36.553528 -0.123008 -1.894174 -8.413882 -0.203300 -2.903400 8.009800 1.507486 0.249330 -0.161558 1.326359 -0.310320 7.367733 2.736733 0.151434 28.636869 0.384500 0.567000 10.776400 -94.125001 -14.181364 43.864956 13.737672 -26.553526 -3.567260 0.145169 -0.676282 -13.119625 -7.125000 0.000000 0.000000 92.180804 14.114521 30.446168 -17.375049 31.585171 -5.619001 0.534634 0.836361 22.826035 7.125000 0.000000 0.000000 
